OpenSim_Sub02_CSStiffKnee_RCS.mot
version=1
nRows=27
nColumns=11
inDegrees=no
endheader
time	Top_Thigh	Med_Thigh	Bot_Thigh	Top_Shank	2nd_Top_Shank	2nd_Bot_Shank	Bot_Shank	BNOx	BNOy	BNOZ
17.22000000	1302.02857442	1272.77763473	1188.25349732	1085.06817517	1199.69848465	985.42332971	990.82474368	55.96398023	-64.01090155	114.71297996
17.23000000	1298.12352159	1271.11675828	1186.10856014	1084.28992358	1199.57992779	983.02752281	989.27001473	57.90195086	-62.88743873	113.65536238
17.24000000	1294.36025142	1269.58992168	1184.28161379	1084.14028079	1199.55717002	981.17416818	988.03069404	59.81558145	-61.69383061	112.36081677
17.25000000	1290.87796876	1268.27307333	1182.90384451	1084.76968843	1199.65440755	980.05261063	987.22127178	61.67094216	-60.43148715	110.70539424
17.26000000	1287.81587846	1267.24216159	1182.10643858	1086.32858812	1199.89583660	979.85219498	986.95623807	63.43410315	-59.10181831	108.56514590
17.27000000	1285.30264912	1266.56620038	1182.00471803	1088.94363650	1200.30123021	980.73695588	987.33430355	65.07944504	-57.71059366	105.84562321
17.28000000	1283.35817731	1266.24261456	1182.55022881	1092.49594324	1200.84469816	982.60963584	988.29127725	66.66714221	-56.30858972	102.75692819
17.29000000	1281.93818993	1266.22659534	1183.59789774	1096.72175848	1201.47341138	985.21882900	989.66686498	68.30798274	-54.97313472	99.68883131
17.30000000	1280.99758448	1266.47278806	1185.00140288	1101.35546007	1202.13419260	988.31113716	991.29953045	70.11340894	-53.78190007	97.03342523
17.31000000	1280.49125848	1266.93583807	1186.61442228	1106.13142588	1202.77386457	991.63316213	993.02773734	72.19486308	-52.81255715	95.18280261
17.32000000	1280.37410945	1267.57039070	1188.29063399	1110.78403374	1203.33925002	994.93150571	994.68994935	74.66378744	-52.14277737	94.52905610
17.33000000	1280.60103489	1268.33109131	1189.88371605	1115.04766152	1203.77717170	997.95276970	996.12463018	77.63162430	-51.85023214	95.46427838
17.34000000	1281.12694549	1269.17263021	1191.24759468	1118.65715700	1204.03458279	1000.44399780	997.17054681	81.20919589	-52.01239790	98.37934195
17.35000000	1281.90954194	1270.05923362	1192.28880863	1121.44699461	1204.08609166	1002.24591507	997.73076151	85.37587385	-52.66542218	103.40644639
17.36000000	1282.91274988	1270.97640362	1193.03128211	1123.47392890	1203.96800902	1003.40826214	997.85178788	89.81774620	-53.75324225	110.10065785
17.37000000	1284.10133723	1271.91252105	1193.51482235	1124.82479040	1203.72499434	1004.00906077	997.59954941	94.18121774	-55.20731868	117.93895253
17.38000000	1285.44007189	1272.85596675	1193.77923661	1125.58640966	1203.40170704	1004.12633275	997.03996960	98.11269330	-56.95911209	126.39830663
17.39000000	1286.89372178	1273.79512155	1193.86433211	1125.84561719	1203.04280659	1003.83809985	996.23897193	101.25857767	-58.94008306	134.95569636
17.40000000	1288.42705481	1274.71836628	1193.80991609	1125.68924354	1202.69295242	1003.22238385	995.26247989	103.26527568	-61.08169219	143.08809792
17.41000000	1290.00483890	1275.61408180	1193.65579581	1125.20411922	1202.39680399	1002.35720652	994.17641700	103.77919215	-63.31540008	150.27248752
17.42000000	1291.59184195	1276.47064893	1193.44177848	1124.47707477	1202.19902075	1001.32058966	993.04670672	102.44673187	-65.57266733	155.98584136
17.43000000	1293.15283187	1277.27644851	1193.20767137	1123.59494073	1202.14426215	1000.19055502	991.93927257	98.91429968	-67.78495452	159.70513564
17.44000000	1294.65257658	1278.01986139	1192.99328169	1122.64454761	1202.27718763	999.04512440	990.92003803	92.82830037	-69.88372226	160.90734658
17.45000000	1296.05584398	1278.68926839	1192.83841670	1121.71272596	1202.64245664	997.96231958	990.05492660	83.83513877	-71.80043114	159.06945036
17.46000000	1297.32740200	1279.27305036	1192.78288364	1120.88630630	1203.28472863	997.02016232	989.40986177	71.58121968	-73.46654175	153.66842321
17.47000000	1298.43201854	1279.75958813	1192.86648973	1120.25211917	1204.24866305	996.29667440	989.05076703	55.71294793	-74.81351470	144.18124131
17.48000000	1299.33524953	1280.13753074	1193.12821289	1119.89529452	1205.57717659	995.86844857	989.04213889	35.90059580	-75.77410654	130.10082005
